<svg xmlns="http://www.w3.org/2000/svg" xmlns:xlink="http://www.w3.org/1999/xlink" version="1.1" x="0px" y="0px" viewBox="0 0 50 62.5" enable-background="new 0 0 50 50" xml:space="preserve"><g><path d="M45.2,25.5h-2.5l0,0c0-9.8-7.9-17.7-17.7-17.7S7.3,15.8,7.3,25.5l0,0H4.8c-2.1,0-3.8,1.7-3.8,3.8v5.2   c0,2.1,1.7,3.8,3.8,3.8h3.6l0,0h1V25.5c0-8.6,7-15.7,15.7-15.7s15.7,7,15.7,15.7v12.7h1l0,0h3.6c2.1,0,3.8-1.7,3.8-3.8v-5.2   C49,27.2,47.3,25.5,45.2,25.5z"/><g><path d="M25,18.4c-6.6,0-11.9,5.3-11.9,11.9S18.4,42.2,25,42.2c6.6,0,11.9-5.3,11.9-11.9S31.6,18.4,25,18.4z M26.4,40.9    c0.5-0.1,1.1-0.3,1.6-0.5c1.1-0.5,2.2-1.1,3-2c0.8-0.9,1.2-2.2,0.9-3.4c-0.4,0-0.8,0.1-1.2,0c-0.4-0.1-0.8-0.3-1-0.6    c-0.4-0.6-0.1-1.4-0.1-2.2c0-0.6-0.3-1.2-0.8-1.6c-0.5-0.3-1.2-0.4-1.8-0.1c-0.5,0.3-0.8,1.1-0.5,1.6c0.2,0.5,0.7,0.9,0.6,1.3    c-0.1,0.5-0.7,0.6-1.2,0.6c-0.5,0-1.1,0-1.4,0.4c-0.3,0.4-0.1,1-0.5,1.4c-0.3,0.3-0.9,0.2-1.4,0.3c-0.5,0.1-0.8,0.5-1,0.9    c-0.2,0.4-0.2,0.9-0.2,1.4c0,0.7,0.1,1.3,0.4,1.9c-4.3-1.4-7.4-5.4-7.4-10.2c0-0.5,0-1,0.1-1.5c0.1,0.1,0.1,0.2,0.2,0.3    c0.1,0.2,0.3,0.5,0.5,0.7c0.2,0.2,0.5,0.3,0.8,0.2c-0.1,0.4-0.3,0.8-0.4,1.2c-0.1,0.4-0.3,1,0.1,1.3c0.3,0.2,0.7,0.2,1,0.4    c0.5,0.3,0.7,1.1,0.3,1.5c0.3-0.1,0.6,0.1,0.8,0.4c0.2,0.3,0.3,0.6,0.5,0.9c0.2,0.3,0.5,0.5,0.8,0.5c0.3,0,0.6-0.3,0.8-0.6    c0.2-0.3,0.3-0.6,0.7-0.8c0.4-0.2,0.8-0.1,1.1-0.4c0.3-0.3,0-0.9,0.2-1.3c0.2-0.3,0.6-0.3,0.8-0.6c0.2-0.3,0-0.7-0.3-0.8    c-0.3-0.1-0.6-0.1-1-0.1s-0.7,0.1-1,0c-0.5-0.2-0.8-0.8-1.2-1.2c-0.5-0.6-1.2-0.9-1.9-0.9c-0.6,0-1.2,0.2-1.6-0.2    c-0.2-0.2-0.2-0.5-0.3-0.8c-0.1-0.5-0.2-1-0.2-1.5c0-0.1,0.1-0.2,0.1-0.2c0.1,0,0.3,0,0.4,0c0.1,0.4,0.6,0.8,1,0.6    c0-0.2-0.1-0.4-0.1-0.6c0.3,0,0.7,0.1,1,0c0.3-0.1,0.5-0.5,0.3-0.8c-0.1-0.1-0.3-0.2-0.4-0.3C17,25.3,16.9,25.1,17,25    c0.1-0.1,0.3-0.1,0.4,0c0.1,0.1,0.2,0.2,0.3,0.3c0.3,0.2,0.7,0.3,1.1,0.2c0.4-0.1,0.7-0.3,1-0.5c0.3-0.2,0.5-0.4,0.5-0.7    c0-0.2-0.2-0.3-0.3-0.5c-0.1-0.1-0.3-0.3-0.2-0.5c0-0.2,0.3-0.3,0.4-0.2c0-0.1,0-0.2,0.1-0.4c-0.2-0.1-0.3,0-0.5,0.1    S19.4,23,19.2,23c-0.2,0-0.4-0.2-0.3-0.3c0.2-0.2,0.5-0.4,0.8-0.4c0.3-0.1,0.6-0.1,0.9,0.1c0.3,0.2,0.4,0.6,0.6,0.8    c0.3,0.2,0.8,0,0.9-0.4c0-0.3,0.1-0.5-0.2-0.8c-0.2-0.3-0.5-0.4-0.9-0.4c-0.6-0.1-1.1,0.2-1.7,0.5c-0.4,0.2-0.9,0.4-1.4,0.2    c0,0-0.1,0-0.1-0.1c1.6-1.3,3.5-2.3,5.6-2.5c-0.1,0.1-0.2,0.2-0.3,0.4c-0.3,0.5-0.2,1-0.1,1.5c0.2,1.1,0.3,2.1,0.1,3.2    c-0.6,2.2-2.1,1.3-3,1.6c-1.7,0.6-1.1,3.5,1.6,3.3c1.9-0.1,2.5-1.5,3.7-1.7c0.5-0.1,1,0,1.5-0.1c0.7-0.2,1.1-0.9,1.3-1.6    c0.2-0.7,0.1-1.4,0.1-2.1c0-0.7,0.1-1.5,0.3-2.2c0.1-0.2,0.4-0.9,0.6-1.4c0.9,0.4,1.7,0.9,2.4,1.5c-0.2,0-0.3,0.1-0.4,0.1    c-0.2,0.1-0.4,0.3-0.4,0.5c0,0.3,0.1,0.5,0.4,0.7c0.2,0.1,0.4,0.1,0.7,0.1c0.2,0,0.4,0.2,0.4,0.5c-0.1,0.2-0.3,0.3-0.3,0.4    c-0.1,0.2,0.1,0.4,0.3,0.5c0.3,0.1,0.6,0.2,0.9,0.2c0.3,0.1,0.6,0.1,0.8,0.4c0.2,0.2,0.3,0.6,0.1,0.8c-0.1,0.1-0.3,0-0.3-0.1    c-0.1-0.1-0.1-0.3-0.2-0.3c-0.2,0-0.3,0.4-0.5,0.3c-0.1,0-0.1-0.1-0.2-0.2c0-0.1,0-0.2,0-0.3c0-0.2-0.3-0.4-0.5-0.4    c-0.2,0-0.4,0.3-0.4,0.5c0.1,0.4,0.5,0.5,0.6,0.9c0.1,0.4-0.3,0.6-0.5,0.9c-0.2,0.3-0.2,0.6-0.2,1c0,0.3,0.1,0.7,0.2,1    c0.1,0.2,0.1,0.4,0.3,0.6c0.1,0.2,0.3,0.3,0.5,0.4c0.2,0,0.4-0.1,0.6-0.2c0.2-0.1,0.3-0.3,0.6-0.3c0.2-0.1,0.5,0,0.6,0.2    c0.2,0.2,0,0.5-0.1,0.8c-0.1,0.7,0.3,1.1,0.8,1.2C34.7,36.7,31,40.3,26.4,40.9z"/></g></g><text x="0" y="65" fill="#000000" font-size="5px" font-weight="bold" font-family="'Helvetica Neue', Helvetica, Arial-Unicode, Arial, Sans-serif">Created by Vectors Market</text><text x="0" y="70" fill="#000000" font-size="5px" font-weight="bold" font-family="'Helvetica Neue', Helvetica, Arial-Unicode, Arial, Sans-serif">from the Noun Project</text></svg>