<?xml version="1.0" encoding="utf-8"?>
<svg viewBox="-2.237 0 102.237 105.609" xmlns="http://www.w3.org/2000/svg">
  <path d="M 37.754 26.055 C 37.452 25.77 37.44 25.295 37.723 24.994 C 38.576 24.098 40.026 23.557 41.612 23.557 C 43.737 23.557 45.537 24.5 46.088 25.904 C 46.237 26.289 46.049 26.723 45.664 26.875 C 45.574 26.91 45.481 26.926 45.391 26.926 C 45.092 26.926 44.811 26.746 44.696 26.451 C 44.637 26.305 44.537 26.156 44.397 26.013 C 44.399 26.026 44.399 26.034 44.399 26.044 C 44.399 27.243 43.426 28.216 42.229 28.216 C 41.032 28.216 40.059 27.243 40.059 26.044 C 40.059 25.765 40.114 25.495 40.211 25.249 C 39.631 25.415 39.137 25.679 38.815 26.023 C 38.527 26.325 38.055 26.339 37.754 26.055 Z M 41.553 26.046 C 41.553 26.419 41.856 26.722 42.227 26.722 C 42.6 26.722 42.901 26.419 42.901 26.046 C 42.901 25.677 42.6 25.374 42.227 25.374 C 41.856 25.374 41.553 25.677 41.553 26.046 Z M 50.571 25.905 C 51.121 24.503 52.92 23.558 55.047 23.558 C 56.631 23.558 58.084 24.097 58.934 24.995 C 59.217 25.296 59.204 25.769 58.903 26.056 C 58.602 26.339 58.131 26.327 57.846 26.028 C 57.522 25.681 57.028 25.419 56.448 25.253 C 56.549 25.499 56.602 25.769 56.602 26.048 C 56.602 27.247 55.627 28.22 54.43 28.22 C 53.235 28.22 52.26 27.247 52.26 26.048 C 52.26 26.038 52.262 26.028 52.262 26.017 C 52.123 26.161 52.022 26.308 51.963 26.455 C 51.85 26.75 51.567 26.93 51.268 26.93 C 51.178 26.93 51.084 26.914 50.997 26.879 C 50.608 26.725 50.419 26.29 50.571 25.905 Z M 53.755 26.046 C 53.755 26.419 54.058 26.722 54.429 26.722 C 54.802 26.722 55.105 26.419 55.105 26.046 C 55.105 25.677 54.802 25.374 54.429 25.374 C 54.057 25.374 53.755 25.677 53.755 26.046 Z M 55.451 30.493 C 54.942 30.493 54.53 30.905 54.53 31.413 C 54.53 31.921 54.942 32.337 55.451 32.337 C 55.959 32.337 56.373 31.921 56.373 31.413 C 56.373 30.905 55.958 30.493 55.451 30.493 Z M 44.924 32.149 C 44.622 31.875 44.155 31.889 43.877 32.188 C 43.592 32.488 43.606 32.959 43.905 33.244 C 44.112 33.44 44.506 33.682 44.993 33.76 C 45.487 34.871 46.676 35.881 48.253 35.881 L 48.255 35.881 L 48.257 35.881 C 49.837 35.881 51.024 34.871 51.516 33.758 C 52.002 33.68 52.393 33.443 52.6 33.244 C 52.901 32.961 52.913 32.488 52.629 32.188 C 52.344 31.887 51.87 31.875 51.569 32.158 C 51.567 32.16 51.34 32.361 51.047 32.262 C 49.729 31.68 48.796 31.912 48.253 32.199 C 47.709 31.914 46.774 31.68 45.459 32.262 C 45.186 32.352 44.971 32.188 44.924 32.149 Z M 92.405 57.054 C 92.405 81.439 72.565 101.28 48.181 101.28 C 23.797 101.28 3.959 81.439 3.959 57.054 C 3.959 49.909 5.702 42.809 9.004 36.524 C 12.198 30.438 16.846 25.102 22.442 21.09 C 22.778 20.85 23.248 20.926 23.487 21.262 C 23.727 21.598 23.651 22.065 23.315 22.305 C 17.908 26.182 13.416 31.338 10.33 37.217 C 7.14 43.29 5.456 50.152 5.456 57.054 C 5.456 69.575 10.872 80.855 19.48 88.677 C 16.144 73.462 15.741 60.028 18.443 53.461 C 19.011 52.084 19.631 50.828 20.228 49.609 C 22.687 44.611 25.23 39.438 25.23 24.13 C 25.23 18.306 27.042 13.634 30.609 10.243 C 37.239 3.948 47.529 4.273 48.344 4.308 C 49.162 4.273 59.455 3.948 66.082 10.243 C 69.651 13.634 71.461 18.305 71.461 24.13 C 71.461 35.989 73.03 41.546 74.399 45.064 C 75.049 46.737 75.768 48.198 76.461 49.61 C 77.061 50.827 77.68 52.085 78.248 53.462 C 80.928 59.975 80.553 73.238 77.295 88.297 C 85.665 80.492 90.909 69.375 90.909 57.054 C 90.909 50.199 89.245 43.379 86.099 37.342 C 83.052 31.494 78.618 26.352 73.271 22.467 C 72.937 22.225 72.864 21.756 73.107 21.422 C 73.349 21.088 73.819 21.016 74.153 21.256 C 79.681 25.277 84.273 30.6 87.425 36.649 C 90.684 42.903 92.405 49.958 92.405 57.054 Z M 78.208 72.469 L 73.132 72.469 C 73.339 72.863 73.453 73.313 73.453 73.795 C 73.453 74.524 73.179 75.213 72.703 75.738 C 73.066 76.137 73.312 76.637 73.408 77.176 L 77.705 77.176 C 77.912 75.562 78.081 73.99 78.208 72.469 Z M 70.737 75.592 C 70.787 75.34 70.961 75.137 71.19 75.043 C 71.658 74.807 71.959 74.322 71.959 73.795 C 71.959 73.074 71.471 72.535 70.776 72.469 L 66.844 72.469 L 66.797 77.361 L 70.006 78.959 C 70.182 79.035 70.368 79.074 70.563 79.074 C 71.334 79.074 71.959 78.449 71.959 77.678 C 71.959 77.139 71.645 76.643 71.153 76.414 C 70.842 76.269 70.672 75.929 70.737 75.592 Z M 28.697 56.664 C 28.947 55.289 29.177 53.916 29.392 52.546 C 29.107 52.804 28.738 53.073 28.249 53.341 C 27.535 53.737 26.701 54.063 25.908 54.272 C 27.304 54.596 28.558 55.234 28.695 56.311 C 28.711 56.422 28.711 56.537 28.697 56.664 Z M 26.734 58.859 C 26.128 59.195 25.433 59.481 24.753 59.691 C 26.035 59.916 27.302 60.393 27.814 61.212 C 28.115 59.769 28.396 58.325 28.66 56.886 C 28.514 57.453 28.02 58.148 26.734 58.859 Z M 23.579 55.506 C 23.298 55.506 23.04 55.522 22.808 55.549 C 21.259 55.746 20.277 56.664 20.365 57.365 C 20.449 58.029 21.445 58.551 22.636 58.551 C 22.816 58.551 22.999 58.539 23.183 58.516 C 25.179 58.266 27.234 56.959 27.212 56.5 C 27.139 56.162 25.555 55.506 23.579 55.506 Z M 22.149 61.068 C 20.598 61.262 19.618 62.18 19.707 62.881 C 19.791 63.547 20.786 64.068 21.975 64.068 C 22.157 64.068 22.34 64.057 22.524 64.035 C 24.518 63.783 26.573 62.477 26.553 62.018 C 26.481 61.678 24.897 61.025 22.918 61.025 C 22.637 61.025 22.379 61.039 22.149 61.068 Z M 26.072 64.379 C 25.419 64.74 24.661 65.051 23.926 65.26 C 25.03 65.488 26.08 65.904 26.608 66.57 C 26.856 65.543 27.092 64.512 27.323 63.486 C 27.026 63.773 26.62 64.074 26.072 64.379 Z M 21.059 66.588 C 19.51 66.783 18.53 67.701 18.618 68.402 C 18.702 69.066 19.698 69.588 20.887 69.588 C 21.067 69.588 21.252 69.576 21.434 69.555 C 23.432 69.301 25.485 67.998 25.465 67.539 C 25.393 67.199 23.809 66.543 21.831 66.543 C 21.549 66.543 21.288 66.556 21.059 66.588 Z M 22.008 70.976 L 25.487 70.976 C 25.559 70.708 25.631 70.444 25.7 70.173 C 25.78 69.87 25.856 69.569 25.934 69.265 C 25.68 69.474 25.371 69.685 24.985 69.896 C 24.077 70.4 22.971 70.799 22.008 70.976 Z M 25.387 76.414 C 24.899 76.643 24.581 77.139 24.581 77.678 C 24.581 78.449 25.208 79.074 25.977 79.074 C 26.17 79.074 26.358 79.035 26.534 78.959 L 29.747 77.356 L 29.747 72.402 L 25.977 72.402 C 25.207 72.402 24.581 73.029 24.581 73.797 C 24.581 74.332 24.893 74.822 25.372 75.055 C 25.59 75.154 25.754 75.35 25.803 75.594 C 25.87 75.929 25.697 76.269 25.387 76.414 Z M 43.266 70.976 C 43.62 70.976 43.926 71.226 43.998 71.573 C 44.014 71.651 44.08 72.011 44.06 72.483 L 44.574 71.806 L 44.574 68.722 L 34.095 68.722 C 33.876 68.722 33.667 68.626 33.527 68.458 C 33.384 68.29 33.324 68.071 33.357 67.853 L 35.593 54.12 C 35.365 54.04 35.163 53.925 34.988 53.77 C 34.031 52.934 34.056 51.254 35.062 48.77 C 35.533 47.606 36.201 46.356 36.925 45.248 C 35.152 45.553 33.423 45.936 31.741 46.377 C 30.812 54.347 29.269 62.478 27.144 70.556 C 27.107 70.698 27.071 70.835 27.032 70.978 L 43.266 70.976 Z M 29.783 49.907 C 29.929 48.872 30.062 47.841 30.185 46.81 C 28.507 47.304 26.882 47.866 25.332 48.495 C 26.865 48.532 28.899 48.936 29.783 49.907 Z M 60.492 62.072 L 59.209 54.188 C 56.76 53.771 53.149 51.077 51.424 49.095 C 50.635 48.194 50.016 47.204 49.6 46.214 C 49.196 46.343 48.765 46.413 48.319 46.413 C 47.737 46.413 47.183 46.294 46.677 46.081 C 46.261 47.116 45.622 48.153 44.8 49.095 C 43.093 51.05 39.55 53.708 37.103 54.172 L 35.845 61.901 L 41.169 67.222 L 44.575 67.222 L 44.575 63.337 L 44.214 62.858 C 44.114 62.728 44.062 62.571 44.062 62.407 L 44.062 59.714 C 44.062 59.495 44.158 59.288 44.324 59.146 L 46.384 57.384 L 46.384 55.456 C 46.132 55.337 45.956 55.081 45.956 54.784 L 45.956 51.535 C 45.956 51.123 46.292 50.787 46.704 50.787 L 49.845 50.787 C 50.257 50.787 50.593 51.123 50.593 51.535 L 50.593 54.784 C 50.593 55.075 50.425 55.323 50.183 55.448 L 50.183 57.386 L 52.241 59.146 C 52.407 59.29 52.503 59.497 52.503 59.714 L 52.503 62.407 C 52.503 62.571 52.45 62.728 52.353 62.858 L 51.99 63.337 L 51.99 67.222 L 55.344 67.222 L 60.492 62.072 Z M 57.453 67.224 L 61.33 67.224 L 60.787 63.892 L 57.453 67.224 Z M 50.953 62.222 L 51.003 62.159 L 51.003 60.608 C 49.865 60.603 46.092 60.603 45.559 60.603 L 45.559 62.159 L 45.621 62.243 L 50.953 62.222 Z M 46.07 63.969 L 46.07 71.356 C 46.799 71.352 48.106 71.354 50.488 71.363 L 50.488 63.973 C 48.928 63.969 47.068 63.967 46.07 63.969 Z M 46.668 59.106 C 46.985 59.109 48.261 59.102 49.891 59.106 L 48.946 58.295 C 48.78 58.152 48.685 57.945 48.685 57.727 L 48.685 55.533 L 47.876 55.533 L 47.876 57.727 C 47.876 57.947 47.78 58.154 47.614 58.295 L 46.668 59.106 Z M 49.094 54.037 L 49.094 52.284 L 47.449 52.284 L 47.449 54.037 L 49.094 54.037 Z M 35.547 63.72 L 34.977 67.224 L 39.053 67.224 L 35.547 63.72 Z M 35.204 20.62 C 36.803 19.001 39.116 17.976 41.913 16.739 C 43.186 16.177 44.172 15.591 44.932 15.042 C 44.27 15.296 43.501 15.558 42.612 15.825 C 38.35 17.102 36.182 18.362 35.204 20.62 Z M 42.18 14.391 C 44.219 13.781 45.506 13.221 46.315 12.781 L 46.164 12.781 C 42.455 12.781 39.141 14.256 36.957 16.563 C 38.279 15.739 39.993 15.046 42.18 14.391 Z M 34.497 25.145 C 34.352 25.891 34.278 26.734 34.278 27.701 C 34.278 27.721 34.272 28.514 34.272 28.514 C 34.272 33.84 38.879 38.236 44.995 38.75 L 45.849 38.748 C 46.544 38.244 47.395 37.947 48.317 37.947 C 49.233 37.947 50.081 38.24 50.774 38.738 L 51.873 38.736 C 57.905 38.164 62.451 33.772 62.451 28.512 C 62.451 28.512 62.451 27.83 62.451 27.717 C 62.451 26.748 62.305 25.889 62.158 25.143 C 61.278 21.791 57.77 21.268 55.679 21.268 C 53.945 21.268 52.288 21.76 51.019 22.654 C 50.681 22.891 50.214 22.809 49.976 22.469 C 49.741 22.133 49.822 21.666 50.159 21.428 C 51.68 20.363 53.64 19.772 55.68 19.772 C 56.553 19.772 57.368 19.848 58.118 19.998 C 57.008 19.377 55.68 18.791 54.137 18.106 C 50.782 16.623 49.133 14.932 48.328 13.738 C 47.526 14.932 45.877 16.623 42.52 18.106 C 40.977 18.791 39.649 19.377 38.538 19.998 C 39.29 19.85 40.104 19.772 40.979 19.772 C 43.018 19.772 44.977 20.363 46.5 21.428 C 46.838 21.666 46.917 22.133 46.682 22.469 C 46.444 22.809 45.979 22.891 45.639 22.654 C 44.368 21.76 42.715 21.268 40.981 21.268 C 38.885 21.27 35.377 21.794 34.497 25.145 Z M 59.862 16.669 C 57.682 14.302 54.326 12.78 50.561 12.78 L 50.34 12.78 C 51.149 13.22 52.436 13.78 54.475 14.39 C 56.755 15.075 58.516 15.798 59.862 16.669 Z M 54.046 15.825 C 53.154 15.556 52.388 15.296 51.724 15.042 C 52.495 15.601 53.48 16.181 54.742 16.739 C 57.54 17.976 59.853 19.001 61.454 20.62 C 60.473 18.362 58.307 17.102 54.046 15.825 Z M 45.579 42.18 C 45.579 43.693 46.808 44.918 48.316 44.918 C 49.825 44.918 51.052 43.691 51.052 42.18 C 51.052 40.67 49.824 39.445 48.316 39.445 C 46.809 39.445 45.579 40.671 45.579 42.18 Z M 59.77 49.333 C 59.067 47.597 57.901 45.661 56.803 44.401 C 55.5 42.911 53.865 41.907 52.528 41.755 C 52.543 41.894 52.549 42.038 52.549 42.181 C 52.549 42.341 52.538 42.497 52.522 42.653 L 58.772 49.816 C 59.043 50.128 59.01 50.597 58.7 50.872 C 58.557 50.995 58.385 51.056 58.209 51.056 C 58 51.056 57.793 50.97 57.645 50.798 L 51.977 44.302 C 51.706 44.771 51.35 45.181 50.928 45.513 C 51.278 46.394 51.83 47.29 52.551 48.116 C 54.373 50.204 58.084 52.753 59.819 52.753 C 59.961 52.753 60.147 52.734 60.25 52.648 C 60.467 52.45 60.653 51.509 59.77 49.333 Z M 65.014 28.514 L 65.014 23.061 C 65.014 15.975 58.53 10.213 50.561 10.213 L 46.163 10.213 C 38.191 10.213 31.71 15.975 31.71 23.061 L 31.71 28.514 C 31.71 34.244 35.951 39.109 41.792 40.758 C 42.564 40.42 43.331 40.236 44.042 40.236 C 44.216 40.236 44.384 40.25 44.546 40.27 C 44.558 40.25 44.568 40.231 44.579 40.209 C 41.419 39.881 38.497 38.572 36.322 36.502 C 34.038 34.322 32.777 31.486 32.777 28.514 L 32.777 23.061 C 32.777 16.568 38.781 11.283 46.163 11.283 L 48.319 11.283 L 48.323 11.283 L 50.561 11.283 C 57.94 11.283 63.946 16.568 63.946 23.061 L 63.946 28.514 C 63.946 34.535 58.842 39.555 52.063 40.219 C 52.067 40.225 52.069 40.231 52.073 40.238 C 52.108 40.238 52.143 40.236 52.178 40.236 C 52.946 40.236 53.778 40.451 54.612 40.84 C 60.614 39.28 65.014 34.348 65.014 28.514 Z M 39.418 44.401 C 38.317 45.661 37.151 47.595 36.448 49.333 C 35.565 51.509 35.752 52.45 35.971 52.644 C 36.073 52.732 36.26 52.749 36.401 52.749 C 38.135 52.749 41.848 50.2 43.67 48.112 C 44.465 47.204 45.059 46.208 45.399 45.239 C 45.03 44.885 44.727 44.468 44.504 44.003 L 38.575 50.796 C 38.428 50.968 38.221 51.054 38.012 51.054 C 37.836 51.054 37.661 50.993 37.52 50.87 C 37.209 50.597 37.176 50.126 37.448 49.814 L 44.088 42.206 C 44.088 42.198 44.088 42.189 44.088 42.181 C 44.088 42.032 44.096 41.88 44.11 41.735 C 44.088 41.732 44.065 41.73 44.043 41.73 C 42.649 41.729 40.834 42.778 39.418 44.401 Z M 43.243 75.865 L 43.243 74.5 C 42.702 75.039 41.935 75.312 40.962 75.312 L 38.677 75.312 L 40.394 77.095 L 43.896 77.095 C 43.679 76.794 43.49 76.491 43.345 76.239 C 43.277 76.125 43.243 75.994 43.243 75.865 Z M 31.247 76.949 L 37.53 79.936 L 46.869 79.936 C 46.88 79.936 46.888 79.934 46.896 79.934 C 46.668 79.473 46.586 78.994 46.57 78.592 L 40.072 78.592 C 39.869 78.592 39.675 78.508 39.533 78.363 L 36.597 75.311 L 34.869 75.311 C 34.457 75.311 34.121 74.977 34.121 74.565 C 34.121 74.152 34.457 73.818 34.869 73.818 L 40.959 73.818 C 41.576 73.818 42.015 73.664 42.263 73.359 C 42.47 73.102 42.541 72.762 42.56 72.471 L 31.247 72.471 L 31.247 76.949 Z M 50.635 77.088 C 50.877 76.975 51.407 76.33 51.823 75.658 L 51.823 74.059 L 50.905 72.859 C 49.032 72.852 46.559 72.848 45.658 72.852 L 45.183 73.477 C 45.621 73.475 46.386 73.477 47.753 73.484 C 48.166 73.484 48.501 73.818 48.498 74.234 C 48.496 74.643 48.162 74.977 47.75 74.977 C 46.69 74.975 44.968 74.971 44.752 74.975 C 44.746 74.975 44.742 74.975 44.736 74.975 L 44.736 75.658 C 45.148 76.33 45.679 76.973 45.924 77.088 L 50.635 77.088 Z M 48.071 78.594 C 48.092 78.895 48.17 79.238 48.373 79.484 C 48.621 79.787 49.058 79.938 49.671 79.938 L 59.011 79.938 L 65.292 76.951 L 65.292 72.472 L 53.98 72.472 C 54.001 72.776 54.08 73.118 54.283 73.364 C 54.531 73.667 54.97 73.819 55.582 73.819 L 61.671 73.819 C 62.082 73.819 62.419 74.153 62.419 74.567 C 62.419 74.978 62.082 75.312 61.671 75.312 L 59.943 75.312 L 57.007 78.364 C 56.865 78.51 56.671 78.593 56.468 78.593 L 48.071 78.593 L 48.071 78.594 Z M 56.149 77.095 L 57.867 75.312 L 55.582 75.312 C 54.619 75.312 53.858 75.048 53.319 74.521 L 53.319 75.866 C 53.319 75.995 53.285 76.126 53.219 76.239 C 53.073 76.491 52.883 76.796 52.664 77.095 L 56.149 77.095 Z M 69.725 70.976 C 69.688 70.835 69.649 70.696 69.614 70.554 C 67.483 62.452 65.934 54.296 65.01 46.303 C 63.129 45.818 61.19 45.412 59.198 45.098 C 59.961 46.244 60.666 47.553 61.159 48.77 C 62.166 51.252 62.19 52.934 61.233 53.77 C 61.079 53.905 60.903 54.011 60.711 54.085 L 62.952 67.855 C 62.985 68.075 62.926 68.293 62.782 68.46 C 62.641 68.628 62.432 68.724 62.215 68.724 L 51.986 68.724 L 51.986 71.808 L 52.48 72.454 C 52.464 71.999 52.529 71.648 52.544 71.573 C 52.615 71.226 52.921 70.976 53.275 70.976 L 69.725 70.976 Z M 71.188 67.539 C 71.167 67.998 73.221 69.301 75.217 69.555 C 75.401 69.576 75.584 69.588 75.766 69.588 C 76.954 69.588 77.95 69.067 78.034 68.402 C 78.123 67.701 77.139 66.783 75.592 66.588 C 75.362 66.557 75.102 66.543 74.821 66.543 C 72.844 66.543 71.26 67.199 71.188 67.539 Z M 72.725 65.26 C 71.991 65.051 71.233 64.74 70.578 64.379 C 70.108 64.119 69.748 63.861 69.469 63.613 C 69.68 64.563 69.903 65.514 70.131 66.467 C 70.678 65.859 71.676 65.474 72.725 65.26 Z M 76.946 62.883 C 77.035 62.182 76.051 61.264 74.504 61.07 C 74.274 61.041 74.014 61.027 73.733 61.027 C 71.754 61.027 70.172 61.68 70.1 62.022 C 70.079 62.479 72.135 63.785 74.129 64.037 C 74.311 64.059 74.495 64.07 74.676 64.07 C 75.867 64.068 76.862 63.549 76.946 62.883 Z M 71.899 59.691 C 71.217 59.481 70.524 59.195 69.918 58.859 C 68.973 58.338 68.457 57.82 68.19 57.359 C 68.42 58.604 68.664 59.848 68.922 61.092 C 69.477 60.349 70.678 59.908 71.899 59.691 Z M 76.285 57.363 C 76.373 56.664 75.391 55.746 73.844 55.549 C 73.614 55.522 73.354 55.506 73.073 55.506 C 71.096 55.506 69.512 56.162 69.438 56.502 C 69.418 56.959 71.471 58.266 73.467 58.516 C 73.651 58.539 73.836 58.551 74.018 58.551 C 75.203 58.551 76.203 58.029 76.285 57.363 Z M 70.742 54.273 C 69.949 54.064 69.115 53.736 68.401 53.342 C 67.983 53.113 67.651 52.881 67.385 52.66 C 67.569 53.835 67.766 55.014 67.977 56.198 C 68.188 55.189 69.397 54.584 70.742 54.273 Z M 66.963 49.807 C 67.942 48.859 70.055 48.492 71.555 48.492 C 71.61 48.492 71.659 48.496 71.711 48.496 C 70.071 47.832 68.348 47.244 66.565 46.729 C 66.688 47.753 66.821 48.778 66.963 49.807 Z M 74.641 70.976 C 73.678 70.798 72.573 70.401 71.666 69.896 C 71.348 69.722 71.079 69.546 70.854 69.375 C 70.922 69.643 70.989 69.908 71.059 70.174 C 71.125 70.422 71.192 70.672 71.258 70.92 C 71.262 70.938 71.264 70.959 71.266 70.977 L 74.641 70.976 Z M 78.362 70.347 C 77.938 70.638 77.424 70.858 76.842 70.976 L 78.321 70.976 C 78.335 70.765 78.35 70.556 78.362 70.347 Z M 78.446 62.824 C 78.446 62.906 78.44 62.988 78.428 63.068 C 78.307 64.035 77.563 64.82 76.49 65.238 C 77.297 65.441 77.988 65.801 78.511 66.26 C 78.52 65.064 78.499 63.916 78.446 62.824 Z M 77.77 57.551 C 77.641 58.572 76.817 59.391 75.643 59.789 C 77.199 60.254 78.289 61.313 78.43 62.518 C 78.323 60.518 78.106 58.709 77.78 57.137 C 77.787 57.273 77.785 57.412 77.77 57.551 Z M 74.469 54.138 C 76 54.448 77.174 55.314 77.606 56.374 C 77.395 55.509 77.149 54.722 76.864 54.03 C 76.635 53.477 76.401 52.947 76.164 52.43 C 75.926 53.168 75.311 53.771 74.469 54.138 Z M 72.326 50.032 C 72.096 50.003 71.836 49.989 71.555 49.989 C 69.577 49.989 67.993 50.642 67.922 50.982 C 67.901 51.442 69.957 52.747 71.95 52.995 C 72.135 53.017 72.317 53.03 72.498 53.03 C 73.686 53.03 74.684 52.509 74.768 51.845 C 74.856 51.145 73.874 50.225 72.326 50.032 Z M 72.764 44.968 C 68.471 43.097 63.651 41.763 58.436 41.003 C 58.424 41.001 58.414 40.995 58.401 40.993 C 57.731 41.335 57.032 41.636 56.305 41.888 C 56.867 42.323 57.409 42.826 57.909 43.398 C 63.726 44.179 69.204 45.681 73.947 47.827 C 73.628 47.124 73.308 46.39 73.005 45.605 C 72.924 45.399 72.844 45.186 72.764 44.968 Z M 24.514 43.247 C 28.155 41.739 32.139 40.595 36.405 39.841 C 32.641 37.218 30.215 33.12 30.215 28.515 L 30.215 23.062 C 30.215 15.155 37.369 8.718 46.164 8.718 L 50.562 8.718 C 59.357 8.718 66.511 15.155 66.511 23.062 L 66.511 28.515 C 66.511 33.093 64.113 37.173 60.386 39.798 C 64.587 40.523 68.525 41.622 72.128 43.077 C 70.994 39.357 69.966 33.765 69.966 24.13 C 69.966 18.734 68.316 14.431 65.06 11.335 C 58.772 5.355 48.487 5.802 48.384 5.805 C 48.361 5.805 48.33 5.805 48.306 5.805 C 48.202 5.803 37.92 5.356 31.633 11.334 C 28.377 14.43 26.727 18.731 26.727 24.129 C 26.727 33.444 25.799 39.104 24.514 43.247 Z M 22.652 48.03 C 27.247 45.892 32.546 44.37 38.195 43.53 C 38.226 43.493 38.257 43.454 38.29 43.419 C 38.845 42.782 39.449 42.228 40.078 41.765 C 39.503 41.548 38.943 41.306 38.402 41.034 C 33.14 41.816 28.287 43.183 23.976 45.101 C 23.941 45.118 23.904 45.124 23.869 45.134 C 23.481 46.177 23.07 47.126 22.652 48.03 Z M 21.883 51.846 C 21.967 52.51 22.963 53.031 24.151 53.031 C 24.334 53.031 24.516 53.018 24.698 52.996 C 26.694 52.746 28.75 51.443 28.729 50.984 C 28.657 50.643 27.073 49.99 25.096 49.99 C 24.817 49.99 24.557 50.004 24.325 50.033 C 22.776 50.225 21.795 51.145 21.883 51.846 Z M 19.137 56.168 C 19.631 55.201 20.752 54.428 22.182 54.137 C 21.36 53.78 20.754 53.198 20.506 52.487 C 20.274 52.987 20.049 53.497 19.827 54.033 C 19.567 54.668 19.336 55.385 19.137 56.168 Z M 18.279 62.213 C 18.554 61.137 19.587 60.213 21.007 59.789 C 19.835 59.391 19.011 58.572 18.882 57.551 C 18.874 57.488 18.872 57.42 18.87 57.356 C 18.582 58.795 18.387 60.424 18.279 62.213 Z M 18.182 66.226 C 18.7 65.788 19.375 65.437 20.161 65.239 C 19.111 64.833 18.378 64.069 18.23 63.132 C 18.19 64.121 18.174 65.154 18.182 66.226 Z M 18.37 70.976 L 19.808 70.976 C 19.246 70.862 18.746 70.655 18.33 70.378 C 18.344 70.578 18.358 70.777 18.37 70.976 Z M 18.986 77.176 L 23.132 77.176 C 23.228 76.639 23.474 76.139 23.837 75.738 C 23.363 75.213 23.085 74.522 23.085 73.795 C 23.085 73.291 23.216 72.816 23.445 72.4 L 18.476 72.4 C 18.608 73.943 18.776 75.539 18.986 77.176 Z M 20.536 86.437 C 21.484 83.925 22.388 81.323 23.232 78.671 L 19.189 78.671 C 19.545 81.185 19.993 83.785 20.536 86.437 Z M 29.022 92.67 C 28.475 92.123 27.565 91.631 27.059 91.516 C 27.168 91.99 27.649 92.902 28.221 93.473 C 28.665 93.916 29.129 94.076 29.391 94.076 C 29.479 94.076 29.549 94.057 29.579 94.027 C 29.695 93.91 29.645 93.289 29.022 92.67 Z M 29.754 95.533 C 29.719 95.539 29.684 95.545 29.647 95.549 C 29.682 95.568 29.717 95.582 29.754 95.6 L 29.754 95.533 Z M 29.754 89.931 C 29.414 90.196 29.051 90.431 28.694 90.591 C 29.09 90.817 29.459 91.073 29.754 91.319 L 29.754 89.931 Z M 31.195 87.59 C 31.232 87.652 31.273 87.715 31.32 87.779 C 31.794 88.428 32.63 89.049 33.081 89.229 C 33.046 88.746 32.714 87.764 32.236 87.111 C 32.191 87.049 32.14 86.988 32.076 86.914 L 32.466 85.691 C 32.54 85.67 32.613 85.654 32.689 85.627 C 33.457 85.379 34.296 84.781 34.609 84.408 C 34.453 84.371 34.21 84.334 33.855 84.334 C 33.33 84.334 32.748 84.418 32.337 84.551 C 32.265 84.574 32.189 84.606 32.101 84.643 L 31.054 83.893 C 31.062 83.82 31.066 83.742 31.066 83.664 C 31.066 82.852 30.754 81.865 30.497 81.455 C 30.24 81.865 29.933 82.854 29.933 83.666 C 29.933 83.74 29.939 83.822 29.95 83.918 L 28.913 84.68 C 28.843 84.652 28.773 84.623 28.698 84.6 C 28.294 84.469 27.716 84.387 27.193 84.387 C 26.835 84.387 26.585 84.424 26.425 84.465 C 26.738 84.836 27.579 85.43 28.349 85.678 C 28.421 85.701 28.501 85.725 28.593 85.744 L 28.999 86.963 C 28.947 87.022 28.9 87.08 28.853 87.145 C 28.378 87.799 28.048 88.783 28.015 89.264 C 28.466 89.082 29.298 88.461 29.773 87.811 C 29.816 87.749 29.861 87.678 29.911 87.596 L 31.195 87.59 Z M 32.731 95.478 C 33.303 94.909 33.784 93.995 33.893 93.523 C 33.387 93.636 32.477 94.128 31.93 94.675 C 31.307 95.294 31.256 95.913 31.37 96.03 C 31.49 96.152 32.133 96.074 32.731 95.478 Z M 38.793 81.433 L 37.36 81.433 C 37.25 81.433 37.139 81.409 37.038 81.36 L 30.907 78.444 C 30.883 78.462 30.854 78.476 30.829 78.491 L 27.186 80.303 C 27.176 80.309 27.168 80.315 27.159 80.318 C 26.784 80.486 26.388 80.57 25.977 80.57 C 25.373 80.57 24.817 80.383 24.354 80.068 C 23.342 83.178 22.252 86.214 21.106 89.109 C 21.12 89.17 21.133 89.227 21.147 89.291 C 21.223 89.629 21.297 89.965 21.37 90.299 C 23.045 91.652 24.817 92.879 26.682 93.971 C 25.932 92.975 25.014 91.252 25.901 90.363 C 26.041 90.223 26.272 90.065 26.63 90.012 C 26.29 89.115 26.806 87.733 27.276 86.858 C 26.153 86.33 24.471 85.184 24.866 83.961 C 25.024 83.475 25.554 82.893 27.188 82.893 C 27.616 82.893 28.063 82.936 28.477 83.012 C 28.541 82.486 28.678 81.918 28.864 81.424 C 29.362 80.106 30.024 79.83 30.491 79.83 C 31.762 79.83 32.337 81.738 32.506 82.971 C 32.936 82.889 33.407 82.842 33.854 82.842 C 35.475 82.842 36.001 83.418 36.163 83.904 C 36.559 85.115 34.913 86.254 33.793 86.793 C 34.391 87.883 35.079 89.795 34.041 90.555 C 33.832 90.707 33.573 90.787 33.293 90.787 C 32.668 90.787 31.905 90.363 31.252 89.834 L 31.252 93.287 C 31.993 92.683 33.176 92.008 34.086 92.008 C 34.579 92.008 34.883 92.205 35.049 92.371 C 35.381 92.703 35.653 93.367 35.071 94.649 C 34.76 95.337 34.268 96.063 33.788 96.543 C 33.59 96.74 33.375 96.912 33.151 97.057 C 34.975 97.745 36.86 98.309 38.795 98.745 L 38.793 81.433 Z M 42.211 81.433 L 40.288 81.433 L 40.288 99.05 C 40.924 99.167 41.565 99.273 42.211 99.364 L 42.211 81.433 Z M 52.926 81.433 L 49.67 81.433 C 49.139 81.433 48.67 81.351 48.266 81.189 C 47.864 81.349 47.399 81.433 46.871 81.433 L 43.709 81.433 L 43.709 99.546 C 45.18 99.7 46.672 99.782 48.181 99.782 C 49.786 99.782 51.368 99.69 52.927 99.517 L 52.926 81.433 Z M 56.333 81.433 L 54.423 81.433 L 54.423 99.325 C 55.066 99.23 55.699 99.122 56.333 98.999 L 56.333 81.433 L 56.333 81.433 Z M 64.614 94.676 C 64.067 94.129 63.157 93.637 62.649 93.524 C 62.76 93.996 63.242 94.91 63.813 95.479 C 64.412 96.076 65.053 96.154 65.17 96.033 C 65.287 95.914 65.237 95.295 64.614 94.676 Z M 66.774 87.81 C 67.248 88.46 68.08 89.081 68.53 89.263 C 68.496 88.782 68.17 87.798 67.692 87.144 C 67.645 87.081 67.596 87.021 67.547 86.962 L 67.952 85.743 C 68.045 85.722 68.125 85.7 68.196 85.677 C 68.965 85.429 69.805 84.835 70.12 84.464 C 69.963 84.423 69.713 84.386 69.352 84.386 C 68.831 84.386 68.252 84.468 67.846 84.599 C 67.774 84.622 67.703 84.651 67.633 84.679 L 66.596 83.917 C 66.606 83.821 66.61 83.739 66.61 83.665 C 66.612 82.853 66.303 81.864 66.047 81.454 C 65.791 81.864 65.479 82.851 65.477 83.663 C 65.477 83.739 65.483 83.817 65.49 83.892 L 64.442 84.642 C 64.356 84.605 64.281 84.575 64.209 84.55 C 63.799 84.417 63.217 84.333 62.69 84.333 C 62.336 84.333 62.09 84.37 61.936 84.407 C 62.248 84.78 63.088 85.378 63.856 85.626 C 63.93 85.653 64.002 85.671 64.078 85.689 L 64.469 86.913 C 64.405 86.987 64.354 87.05 64.309 87.11 C 63.832 87.763 63.5 88.745 63.465 89.228 C 63.916 89.046 64.75 88.427 65.227 87.778 C 65.272 87.714 65.313 87.651 65.35 87.589 L 66.637 87.595 C 66.684 87.678 66.729 87.748 66.774 87.81 Z M 66.797 91.308 C 67.09 91.069 67.454 90.812 67.848 90.591 C 67.494 90.433 67.135 90.198 66.797 89.935 L 66.797 91.308 Z M 69.485 91.515 C 68.979 91.63 68.069 92.122 67.52 92.669 C 66.899 93.288 66.848 93.909 66.963 94.024 C 67.082 94.142 67.723 94.067 68.321 93.47 C 68.895 92.9 69.374 91.988 69.485 91.515 Z M 75.621 88.937 C 74.6 86.278 73.3 82.745 72.365 79.933 C 71.871 80.329 71.246 80.569 70.562 80.569 C 70.152 80.569 69.753 80.485 69.38 80.317 C 69.37 80.314 69.361 80.308 69.353 80.302 L 65.71 78.49 C 65.683 78.475 65.657 78.461 65.634 78.443 L 59.501 81.359 C 59.398 81.408 59.29 81.432 59.179 81.432 L 57.826 81.432 L 57.826 98.682 C 59.71 98.244 61.546 97.682 63.322 97.006 C 63.126 96.869 62.931 96.713 62.755 96.535 C 62.275 96.056 61.781 95.33 61.472 94.641 C 60.892 93.359 61.163 92.695 61.493 92.363 C 61.659 92.197 61.963 92 62.459 92 C 63.372 92 64.559 92.68 65.301 93.287 L 65.301 89.818 C 64.645 90.35 63.879 90.779 63.252 90.779 C 62.971 90.779 62.713 90.699 62.504 90.547 C 61.463 89.787 62.153 87.875 62.752 86.785 C 61.631 86.246 59.985 85.107 60.383 83.895 C 60.539 83.412 61.069 82.834 62.69 82.834 C 63.135 82.834 63.608 82.881 64.038 82.963 C 64.206 81.732 64.778 79.822 66.051 79.822 C 66.52 79.822 67.182 80.096 67.678 81.416 C 67.866 81.91 68.001 82.475 68.067 83.004 C 68.479 82.928 68.93 82.885 69.356 82.885 C 70.991 82.885 71.52 83.467 71.678 83.953 C 72.074 85.178 70.391 86.322 69.268 86.85 C 69.739 87.725 70.253 89.107 69.914 90.004 C 70.269 90.057 70.504 90.215 70.642 90.355 C 71.476 91.191 70.718 92.762 69.998 93.775 C 71.896 92.641 73.699 91.367 75.394 89.963 C 75.443 89.738 75.494 89.51 75.544 89.283 C 75.571 89.172 75.596 89.054 75.621 88.937 Z M 76.18 86.32 C 76.711 83.707 77.153 81.147 77.504 78.672 L 73.529 78.672 C 74.36 81.283 75.249 83.847 76.18 86.32 Z M 50.813 90.105 C 50.957 90.247 51.034 90.435 51.034 90.634 C 51.034 90.833 50.955 91.023 50.813 91.163 L 48.789 93.187 C 48.643 93.333 48.45 93.407 48.26 93.407 C 48.069 93.407 47.877 93.335 47.731 93.187 L 45.706 91.161 C 45.565 91.019 45.485 90.831 45.485 90.634 C 45.485 90.435 45.565 90.245 45.706 90.105 L 47.731 88.079 C 48.023 87.788 48.498 87.786 48.789 88.079 L 50.813 90.105 Z M 49.227 90.635 L 48.259 89.666 L 47.291 90.635 L 48.259 91.604 L 49.227 90.635 Z M 50.813 96.185 C 50.955 96.327 51.034 96.515 51.034 96.712 C 51.034 96.911 50.955 97.101 50.813 97.241 L 48.789 99.267 C 48.643 99.413 48.45 99.487 48.26 99.487 C 48.069 99.487 47.877 99.415 47.731 99.267 L 45.706 97.241 C 45.565 97.099 45.485 96.911 45.485 96.712 C 45.485 96.515 45.565 96.323 45.706 96.183 L 47.731 94.159 C 48.023 93.866 48.496 93.866 48.789 94.159 L 50.813 96.185 Z M 49.227 96.713 L 48.259 95.744 L 47.291 96.713 L 48.259 97.682 L 49.227 96.713 Z M 50.119 73.484 C 49.728 73.471 49.285 73.461 49.085 73.943 C 48.927 74.326 49.107 74.762 49.488 74.922 C 49.583 74.961 49.828 74.977 49.853 74.975 C 49.933 74.977 50.078 74.977 50.078 74.977 C 50.486 74.988 50.837 74.665 50.849 74.252 C 50.858 73.838 50.535 73.494 50.119 73.484 Z M 48.787 81.998 L 50.812 84.025 C 50.955 84.166 51.033 84.354 51.033 84.553 C 51.033 84.752 50.953 84.943 50.812 85.082 L 48.787 87.109 C 48.641 87.255 48.449 87.326 48.259 87.326 C 48.068 87.326 47.875 87.256 47.73 87.109 L 45.705 85.08 C 45.564 84.938 45.484 84.75 45.484 84.553 C 45.484 84.354 45.564 84.164 45.705 84.025 L 47.73 81.998 C 48.023 81.707 48.494 81.705 48.787 81.998 Z M 49.227 84.554 L 48.259 83.586 L 47.291 84.555 L 48.259 85.524 L 49.227 84.554 Z" transform="matrix(1, 0, 0, 1, 1.7763568394002505e-15, 0)"/>
</svg>