<svg xmlns="http://www.w3.org/2000/svg" version="1.1" viewBox="-5.0 -10.0 110.0 135.0">
 <path d="m85.453 44.766c-1.9336-2.9219-5.168-4.5547-8.6484-4.3633l-6.0117 0.32422 5.9766-0.73437c3.4609-0.42578 6.3555-2.5977 7.7539-5.8086 1.3516-3.1172 0.98047-6.6016-1-9.3164-0.097657-0.13672-0.20313-0.26953-0.30859-0.40625-0.36328-0.45313-0.76562-0.88281-1.1953-1.2773-3.5547-3.25-8.6445-3.7891-12.707-1.7266 0.59375-1.4727 0.87109-3.0703 0.79688-4.7031-0.13281-3.0039-1.4258-5.7773-3.6445-7.8047-0.42969-0.39062-0.89062-0.75391-1.375-1.0781-0.14062-0.09375-0.28516-0.18359-0.42969-0.27344-2.8789-1.7305-6.3789-1.7969-9.3672-0.17188-3.0781 1.6719-4.9844 4.75-5.1016 8.2344l-0.20312 6.0156-0.21094-6.0156c-0.12109-3.4844-2.0312-6.5586-5.1133-8.2305-2.9883-1.6211-6.4922-1.5508-9.3672 0.18359-0.14453 0.085938-0.28906 0.17969-0.42969 0.27344-0.48438 0.32422-0.94922 0.6875-1.375 1.0781-2.2148 2.0312-3.5078 4.8047-3.6367 7.8125-0.070313 1.6328 0.20703 3.2227 0.80078 4.6953-1.4141-0.71875-2.9766-1.1289-4.6094-1.1992-3.0117-0.125-5.8789 0.91797-8.0938 2.9531-0.42578 0.39063-0.82812 0.82031-1.1953 1.2773-0.10547 0.13281-0.21094 0.26953-0.30859 0.40625-1.9766 2.7188-2.3438 6.1992-0.98828 9.3164 1.3984 3.2109 4.3008 5.3789 7.7578 5.8008l5.9805 0.72656-6.0156-0.31641c-3.4727-0.1875-6.7109 1.4531-8.6406 4.375-1.875 2.8359-2.1133 6.332-0.63281 9.3477 0.074219 0.15234 0.15234 0.30078 0.23438 0.45312 0.28125 0.51172 0.60156 1.0039 0.95703 1.4648 1.832 2.3828 4.4844 3.9141 7.4648 4.3047 1.6211 0.21094 3.2305 0.074219 4.7461-0.38672-0.83594 1.3477-1.3867 2.8672-1.5977 4.4844-0.39062 2.9805 0.40234 5.9375 2.2344 8.3203 0.35156 0.46094 0.74609 0.89844 1.168 1.3008 0.125 0.11719 0.25 0.23438 0.37891 0.34375 1.7383 1.5117 3.8984 2.3008 6.125 2.3008 1.0195 0 2.0586-0.16797 3.0703-0.50781 3.3203-1.1133 5.7344-3.8125 6.4531-7.2227l4.2148-19.957c0.11719 14.188-2.6641 27.844-8.4531 41.582l-0.89453 2.1211c-0.15234 0.36328 0.015625 0.78125 0.37891 0.93359 0.089844 0.039063 0.18359 0.054688 0.27734 0.054688 0.27734 0 0.54297-0.16406 0.65625-0.4375l0.89453-2.1211c5.7773-13.707 8.5977-27.34 8.5703-41.488l4.1016 19.305c0.72266 3.4102 3.1406 6.1055 6.4648 7.2148 1.0117 0.33594 2.043 0.50391 3.0586 0.50391 2.2305 0 4.3945-0.79297 6.1328-2.3086 0.12891-0.10938 0.25391-0.22656 0.375-0.34375 0.42188-0.40234 0.8125-0.83984 1.168-1.3008 1.8281-2.3867 2.6172-5.3438 2.2266-8.3242-0.21484-1.6211-0.76562-3.1445-1.6055-4.4922 4.3594 1.3203 9.2812-0.10156 12.211-3.9219 0.35156-0.46094 0.67188-0.95312 0.95312-1.4648 0.082031-0.14844 0.16016-0.30078 0.23438-0.45312 1.4727-3.0195 1.2305-6.5117-0.64453-9.3477zm-40.395 2.4844-10.504 8.0664c-0.12891 0.097656-0.28125 0.14844-0.43359 0.14844-0.21484 0-0.42578-0.09375-0.56641-0.27734-0.23828-0.3125-0.17969-0.76172 0.13281-1l10.504-8.0664c0.3125-0.23828 0.76172-0.18359 1 0.13281 0.23828 0.3125 0.17969 0.76172-0.13281 1zm0.83984-9.1602c-0.13672 0.125-0.30859 0.1875-0.48047 0.1875-0.19141 0-0.38672-0.078125-0.52734-0.23047l-8.9531-9.7578c-0.26562-0.28906-0.24609-0.74219 0.042969-1.0078 0.29297-0.26562 0.74219-0.24609 1.0078 0.042969l8.9531 9.7578c0.26562 0.28906 0.24609 0.74219-0.042968 1.0078zm8.1914-0.003906c-0.28906-0.26563-0.30859-0.71875-0.042969-1.0078l8.9414-9.7695c0.26562-0.28906 0.71484-0.30859 1.0078-0.042969 0.28906 0.26562 0.30859 0.71875 0.042968 1.0078l-8.9414 9.7695c-0.14062 0.15234-0.33203 0.23047-0.52734 0.23047-0.17187 0-0.34375-0.0625-0.48047-0.1875zm12.359 17.082c-0.14062 0.18359-0.35156 0.28125-0.56641 0.28125-0.15234 0-0.30469-0.046875-0.43359-0.14844l-10.512-8.0547c-0.3125-0.23828-0.37109-0.6875-0.13281-1 0.24219-0.3125 0.6875-0.37109 1-0.13281l10.512 8.0547c0.3125 0.23828 0.37109 0.6875 0.13281 1z"/>
<text x="0.0" y="117.5" font-size="5.0" font-weight="bold" font-family="Arbeit Regular, Helvetica, Arial-Unicode, Arial, Sans-serif" fill="#000000">Created by &#51648;&#51008; &#50724;</text><text x="0.0" y="122.5" font-size="5.0" font-weight="bold" font-family="Arbeit Regular, Helvetica, Arial-Unicode, Arial, Sans-serif" fill="#000000">from Noun Project</text></svg>